<svg xmlns="http://www.w3.org/2000/svg" width="500" height="500" style="width:100%;height:100%;transform:translate3d(0,0,0);content-visibility:visible" viewBox="0 0 500 500"><defs><clipPath id="a"><path d="M0 0h500v500H0z"/></clipPath><clipPath id="c"><path d="M0 0h500v500H0z"/></clipPath><clipPath id="b"><path d="M0 0h500v500H0z"/></clipPath></defs><g clip-path="url(#a)"><g clip-path="url(#b)" style="display:block"><g class="primary design" style="display:none"><path fill="none" class="primary"/></g><g class="primary design" style="display:none"><path class="primary"/><path fill="none" class="primary"/></g><g class="primary design" style="display:block"><path fill="#66D6ED" d="m427.222 397.726-75.488-75.488c21.017-27.245 33.661-61.281 33.661-98.234 0-89.152-72.488-161.432-161.432-161.432-88.945 0-161.433 72.28-161.433 161.432 0 88.944 72.488 161.433 161.433 161.433 37.014 0 71.071-12.686 98.338-33.745l75.467 75.488a20.773 20.773 0 0 0 14.727 6.103 20.773 20.773 0 0 0 14.727-6.103c8.144-8.145 8.144-21.31 0-29.454zm-203.26-293.494c66.032 0 119.773 53.741 119.773 119.772s-53.741 119.773-119.772 119.773c-66.032 0-119.773-53.742-119.773-119.773 0-66.03 53.741-119.772 119.773-119.772z" class="primary"/></g><g class="primary design" style="display:none"><path class="primary"/></g></g><g clip-path="url(#c)" style="display:none"><g class="primary design" style="display:none"><path fill="none" class="primary"/></g><g class="primary design" style="display:none"><path class="primary"/><path fill="none" class="primary"/></g><g class="primary design" style="display:none"><path class="primary"/></g></g></g></svg>