<svg xmlns="http://www.w3.org/2000/svg" width="144" height="144" style="width:100%;height:100%;transform:translate3d(0,0,0);content-visibility:visible" viewBox="0 0 144 144"><defs><clipPath id="a"><path d="M0 0h144v144H0z"/></clipPath><clipPath id="o"><path d="M0 0h144v144H0z"/></clipPath><clipPath id="n"><path d="M0 0h144v144H0z"/></clipPath><clipPath id="m"><path d="M0 0h144v144H0z"/></clipPath><clipPath id="l"><path d="M0 0h144v144H0z"/></clipPath><clipPath id="k"><path d="M0 0h144v144H0z"/></clipPath><clipPath id="j"><path d="M0 0h144v144H0z"/></clipPath><clipPath id="i"><path d="M0 0h144v144H0z"/></clipPath><clipPath id="h"><path d="M0 0h144v144H0z"/></clipPath><clipPath id="g"><path d="M0 0h144v144H0z"/></clipPath><clipPath id="f"><path d="M0 0h144v144H0z"/></clipPath><clipPath id="e"><path d="M0 0h144v144H0z"/></clipPath><clipPath id="d"><path d="M0 0h144v144H0z"/></clipPath><clipPath id="c"><path d="M0 0h144v144H0z"/></clipPath><clipPath id="b"><path d="M0 0h144v144H0z"/></clipPath></defs><g clip-path="url(#a)"><g fill="none" clip-path="url(#b)" style="display:none"><path class="primary" style="display:none"/><path class="primary" style="display:none"/></g><g clip-path="url(#c)" style="display:none"><path fill="none" class="primary" style="display:none"/></g><g fill="none" clip-path="url(#d)" style="display:none"><path class="primary" style="display:none"/><path class="primary" style="display:none"/></g><g fill="none" clip-path="url(#e)" style="display:none"><path class="primary" style="display:none"/><path class="primary" style="display:none"/></g><g clip-path="url(#f)" style="display:none"><path fill="none" class="primary" style="display:none"/></g><g fill="none" clip-path="url(#g)" style="display:none"><path class="primary" style="display:none"/><path class="primary" style="display:none"/></g><g fill="none" clip-path="url(#h)" style="display:none"><path class="primary" style="display:none"/><path class="primary" style="display:none"/></g><g fill="none" clip-path="url(#i)" style="display:none"><path class="primary" style="display:none"/><path class="primary" style="display:none"/></g><g clip-path="url(#j)" style="display:none"><path fill="none" class="primary" style="display:none"/></g><g clip-path="url(#k)" style="display:none"><path fill="none" class="primary" style="display:none"/></g><g clip-path="url(#l)" style="display:none"><path fill="none" class="primary" style="display:none"/></g><g clip-path="url(#m)" style="display:none"><path fill="none" class="primary" style="display:none"/></g><g clip-path="url(#n)" style="display:block"><path fill="none" stroke="#A22CDF" stroke-linecap="round" stroke-linejoin="round" stroke-width="9" d="M55.288 4.876C52.816 33.227 28.988 55.5 0 55.5c-30.63 0-55.5-24.87-55.5-55.5S-30.63-55.5 0-55.5" class="primary" style="display:block" transform="translate(72 72)"/></g><g clip-path="url(#o)" style="display:none"><path fill="none" class="primary" style="display:none"/></g></g></svg>