<svg xmlns="http://www.w3.org/2000/svg" width="500" height="500" style="width:100%;height:100%;transform:translate3d(0,0,0);content-visibility:visible" viewBox="0 0 500 500"><defs><clipPath id="a"><path d="M0 0h500v500H0z"/></clipPath><clipPath id="d"><path d="M0 0h500v500H0z"/></clipPath><clipPath id="c"><path d="M0 0h500v500H0z"/></clipPath><clipPath id="b"><path d="M0 0h500v500H0z"/></clipPath></defs><g clip-path="url(#a)"><g clip-path="url(#b)" style="display:none"><g class="primary design" style="display:none"><path class="primary"/><path class="primary"/><path class="primary"/></g><g class="primary design" style="display:none"><path class="primary"/><path class="primary"/><path class="primary"/></g><g class="primary design" style="display:none"><path fill="none" class="primary"/></g><g class="primary design" style="display:none"><path fill="none" class="primary"/></g><g fill="none" class="primary design" style="display:none"><path class="primary"/><path class="primary"/></g></g><g clip-path="url(#c)" style="display:block"><g fill="#A22CDF" class="primary design" style="display:block"><path d="M415.6 187.511c-.208-.416-.208-1.041-.416-1.458-.833-1.666-1.667-3.124-3.125-4.582L276.664 46.076c-1.25-1.25-2.916-2.292-4.582-3.125-.417-.208-1.042-.416-1.458-.625-1.25-.416-2.708-.833-4.166-.833-.209.417-.417.208-.834.208h-145.81c-19.996 0-36.452 16.456-36.452 36.453v343.695c0 19.997 16.456 36.452 36.452 36.452H380.19c19.997 0 36.453-16.455 36.453-36.452v-229.13c0-.417-.208-.625-.208-1.042 0-1.25-.417-2.708-.834-4.166zM281.247 95.026l82.07 82.07h-82.07v-82.07zm98.942 332.03H119.814c-2.916 0-5.207-2.29-5.207-5.207V78.154c0-2.916 2.291-5.208 5.207-5.208h130.188V192.72c0 8.54 7.082 15.622 15.622 15.622h119.773V421.85c0 2.916-2.291 5.207-5.208 5.207z" class="primary"/><path d="M317.7 270.831H182.303c-8.54 0-15.622 7.083-15.622 15.623s7.082 15.622 15.622 15.622H317.7c8.54 0 15.623-7.082 15.623-15.622s-7.082-15.623-15.623-15.623zm0 62.49H182.303c-8.54 0-15.622 7.083-15.622 15.623s7.082 15.622 15.622 15.622H317.7c8.54 0 15.623-7.082 15.623-15.622s-7.082-15.623-15.623-15.623z" class="primary"/></g><g class="primary design" style="display:none"><path class="primary"/><path class="primary"/><path class="primary"/></g><g class="primary design" style="display:none"><path fill="none" class="primary"/></g><g class="primary design" style="display:none"><path fill="none" class="primary"/></g><g fill="none" class="primary design" style="display:none"><path class="primary"/><path class="primary"/></g></g><g clip-path="url(#d)" style="display:none"><g class="primary design" style="display:none"><path class="primary"/><path class="primary"/><path class="primary"/></g><g class="primary design" style="display:none"><path fill="none" class="primary"/></g><g class="primary design" style="display:none"><path fill="none" class="primary"/></g><g class="primary design" style="display:none"><path fill="none" class="primary"/></g><g fill="none" class="primary design" style="display:none"><path class="primary"/><path class="primary"/></g></g></g></svg>