<svg xmlns="http://www.w3.org/2000/svg" width="500" height="500" style="width:100%;height:100%;transform:translate3d(0,0,0);content-visibility:visible" viewBox="0 0 500 500"><defs><clipPath id="a"><path d="M0 0h500v500H0z"/></clipPath><clipPath id="f"><path d="M0 0h500v500H0z"/></clipPath><clipPath id="g"><path fill="#fff" d="M153.997 10.321h-296v210h296v-210"/></clipPath><clipPath id="e"><path d="M0 0h500v500H0z"/></clipPath><clipPath id="d"><path d="M0 0h500v500H0z"/></clipPath><clipPath id="c"><path d="M0 0h500v500H0z"/></clipPath><clipPath id="b"><path d="M0 0h500v500H0z"/></clipPath></defs><g clip-path="url(#a)"><g clip-path="url(#b)" style="display:none"><g class="primary design" style="display:none"><path class="primary"/></g><g class="primary design" style="display:none"><path fill="none" class="primary"/></g><g class="primary design" style="display:none"><path fill="none" class="primary"/></g><g class="primary design" style="display:none"><path fill="none" class="primary"/></g><g class="primary design" style="display:none"><path class="primary"/></g></g><g clip-path="url(#c)" style="display:none"><g class="primary design" style="display:none"><path class="primary"/></g><g class="primary design" style="display:none"><path fill="none" class="primary"/></g><g class="primary design" style="display:none"><path fill="none" class="primary"/></g></g><g clip-path="url(#d)" style="display:none"><g class="primary design" style="display:none"><path class="primary"/></g><g class="primary design" style="display:none"><path class="primary"/></g><g class="primary design" style="display:none"><path fill="none" class="primary"/></g></g><g clip-path="url(#e)" style="display:block"><g class="primary design" style="display:block"><path fill="#A22CDF" d="M421.85 173.753 270.831 68.374c-12.498-8.748-29.162-8.748-41.66 0L78.154 173.754c-9.79 6.665-15.622 17.934-15.622 29.807v197.468c0 19.997 16.456 36.453 36.452 36.453h62.49c31.662 0 57.283-25.621 57.283-57.283v-72.905c0-2.916 2.291-5.207 5.207-5.207h52.075c2.917 0 5.208 2.291 5.208 5.207V380.2c0 31.662 25.62 57.283 57.282 57.283h62.49c19.997 0 36.453-16.456 36.453-36.453V203.561c0-11.873-5.832-23.142-15.623-29.808zM406.226 401.03c0 2.917-2.291 5.208-5.208 5.208h-62.49c-14.372 0-26.037-11.665-26.037-26.038v-72.905c0-19.996-16.456-36.452-36.453-36.452h-52.075c-19.996 0-36.452 16.456-36.452 36.452V380.2c0 14.373-11.665 26.038-26.038 26.038h-62.49c-2.916 0-5.207-2.291-5.207-5.208V203.561c0-1.666.833-3.354 2.291-4.395L247.086 93.974c1.874-1.25 4.166-1.25 6.04 0l151.018 105.192c1.458 1.041 2.291 2.52 2.291 4.395v197.468h-.208z" class="primary"/></g><g class="primary design" style="display:none"><path class="primary"/></g><g class="primary design" style="display:none"><path fill="none" class="primary"/></g><g class="primary design" style="display:none"><path fill="none" class="primary"/></g></g><g clip-path="url(#f)" style="display:none"><g class="primary design" style="display:none"><path class="primary"/></g><g class="primary design" style="display:none"><path fill="none" class="primary"/></g><g class="primary design" clip-path="url(#g)" style="display:none"><path fill="none" class="primary"/></g></g></g></svg>