<svg xmlns="http://www.w3.org/2000/svg" width="500" height="500" style="width:100%;height:100%;transform:translate3d(0,0,0);content-visibility:visible" viewBox="0 0 500 500"><defs><clipPath id="a"><path d="M0 0h500v500H0z"/></clipPath><clipPath id="d"><path d="M0 0h500v500H0z"/></clipPath><clipPath id="e"><path fill="#fff"/></clipPath><clipPath id="c"><path d="M0 0h500v500H0z"/></clipPath><clipPath id="b"><path d="M0 0h500v500H0z"/></clipPath></defs><g clip-path="url(#a)"><g clip-path="url(#b)" style="display:none"><g class="primary design" style="display:none"><path fill="none" class="primary"/><path class="primary"/><path class="primary"/><path class="primary"/><path class="primary"/><path class="primary"/><path class="primary"/></g><g class="primary design" style="display:none"><path fill="none" class="primary"/><path fill="none" class="primary"/><path class="primary"/><path fill="none" class="primary"/><path class="primary"/><path fill="none" class="primary"/><path class="primary"/><path fill="none" class="primary"/><path class="primary"/><path fill="none" class="primary"/><path class="primary"/><path fill="none" class="primary"/><path class="primary"/><path fill="none" class="primary"/></g><g class="primary design" style="display:none"><path class="primary"/><path fill="none" class="primary"/><path fill="none" class="primary"/></g><g class="primary design" style="display:none"><path class="primary"/><path class="primary"/><path fill="none" class="primary"/></g></g><g clip-path="url(#c)" style="display:block"><g fill="#A22CDF" class="primary design" style="display:block"><path d="M401.02 83.362h-52.076V57.324c0-8.54-7.082-15.622-15.622-15.622s-15.623 7.082-15.623 15.622v26.038H182.304V57.324c0-8.54-7.082-15.622-15.622-15.622s-15.623 7.082-15.623 15.622v26.038H98.984c-19.996 0-36.452 16.456-36.452 36.452V401.02c0 19.997 16.456 36.453 36.452 36.453H401.02c19.997 0 36.453-16.456 36.453-36.453V119.814c0-19.996-16.456-36.452-36.453-36.452zM98.983 114.607H401.02c2.917 0 5.208 2.291 5.208 5.207v46.868H93.777v-46.868c0-2.916 2.291-5.207 5.207-5.207zm302.035 291.62H98.984c-2.916 0-5.207-2.291-5.207-5.208V197.927h312.45v203.092c0 2.917-2.291 5.208-5.208 5.208z" class="primary"/><path d="M166.682 250.002c-11.456 0-20.83 9.373-20.83 20.83 0 11.456 9.374 20.83 20.83 20.83h.208c11.457 0 20.83-9.374 20.83-20.83-.208-11.457-9.581-20.83-21.038-20.83zm83.32 0c-11.665 0-20.83 9.373-20.83 20.83 0 11.456 9.373 20.83 20.83 20.83 11.456 0 20.83-9.374 20.83-20.83 0-11.457-9.165-20.83-20.83-20.83zm83.32 0c-11.665 0-20.83 9.373-20.83 20.83 0 11.456 9.373 20.83 20.83 20.83 11.456 0 20.83-9.374 20.83-20.83 0-11.457-9.374-20.83-20.83-20.83zm-166.64 72.905c-11.456 0-20.83 9.373-20.83 20.83 0 11.456 9.374 20.83 20.83 20.83h.208c11.457 0 20.83-9.374 20.83-20.83-.208-11.457-9.581-20.83-21.038-20.83zm83.32 0c-11.665 0-20.83 9.373-20.83 20.83 0 11.456 9.373 20.83 20.83 20.83 11.456 0 20.83-9.374 20.83-20.83 0-11.457-9.165-20.83-20.83-20.83z" class="primary"/></g><g fill="#A22CDF" class="primary design" style="display:none"><path d="M401.02 83.362h-52.076V57.324c0-8.54-7.082-15.622-15.622-15.622s-15.623 7.082-15.623 15.622v26.038H182.304V57.324c0-8.54-7.082-15.622-15.622-15.622s-15.623 7.082-15.623 15.622v26.038H98.984c-19.996 0-36.452 16.456-36.452 36.452V401.02c0 19.997 16.456 36.453 36.452 36.453H401.02c19.997 0 36.453-16.456 36.453-36.453V119.814c0-19.996-16.456-36.452-36.453-36.452zM98.983 114.607H401.02c2.917 0 5.208 2.291 5.208 5.207v46.868H93.777v-46.868c0-2.916 2.291-5.207 5.207-5.207zm302.035 291.62H98.984c-2.916 0-5.207-2.291-5.207-5.208V197.927h312.45v203.092c0 2.917-2.291 5.208-5.208 5.208z" class="primary"/><path d="M166.682 250.002c-11.456 0-20.83 9.373-20.83 20.83 0 11.456 9.374 20.83 20.83 20.83h.208c11.457 0 20.83-9.374 20.83-20.83-.208-11.457-9.581-20.83-21.038-20.83zm83.32 0c-11.665 0-20.83 9.373-20.83 20.83 0 11.456 9.373 20.83 20.83 20.83 11.456 0 20.83-9.374 20.83-20.83 0-11.457-9.165-20.83-20.83-20.83zm83.32 0c-11.665 0-20.83 9.373-20.83 20.83 0 11.456 9.373 20.83 20.83 20.83 11.456 0 20.83-9.374 20.83-20.83 0-11.457-9.374-20.83-20.83-20.83zm-166.64 72.905c-11.456 0-20.83 9.373-20.83 20.83 0 11.456 9.374 20.83 20.83 20.83h.208c11.457 0 20.83-9.374 20.83-20.83-.208-11.457-9.581-20.83-21.038-20.83zm83.32 0c-11.665 0-20.83 9.373-20.83 20.83 0 11.456 9.373 20.83 20.83 20.83 11.456 0 20.83-9.374 20.83-20.83 0-11.457-9.165-20.83-20.83-20.83z" class="primary"/></g><g class="primary design" style="display:none"><path fill="none" class="primary"/><path fill="none" class="primary"/><path class="primary"/><path fill="none" class="primary"/><path class="primary"/><path fill="none" class="primary"/><path class="primary"/><path fill="none" class="primary"/><path class="primary"/><path fill="none" class="primary"/><path class="primary"/><path fill="none" class="primary"/><path class="primary"/><path fill="none" class="primary"/></g><g fill="none" class="primary design" style="display:none"><path class="primary"/><path class="primary"/></g><g class="primary design" style="display:none"><path class="primary"/><path class="primary"/><path fill="none" class="primary"/></g></g><g clip-path="url(#d)" style="display:none"><g class="primary design" style="display:none"><path class="primary"/><path class="primary"/><path class="primary"/><path class="primary"/><path class="primary"/><path class="primary"/></g><g class="primary design" clip-path="url(#e)" style="display:none"><path fill="none" class="primary"/><path fill="none" class="primary"/><path fill="none" class="primary"/><path fill="none" class="primary"/><path class="primary"/><path fill="none" class="primary"/><path class="primary"/><path fill="none" class="primary"/><path class="primary"/><path fill="none" class="primary"/><path class="primary"/><path fill="none" class="primary"/><path class="primary"/><path fill="none" class="primary"/></g><g class="primary design" style="display:none"><path class="primary"/><path class="primary"/><path fill="none" class="primary"/></g></g></g></svg>