<svg xmlns="http://www.w3.org/2000/svg" width="500" height="500" style="width:100%;height:100%;transform:translate3d(0,0,0);content-visibility:visible" viewBox="0 0 500 500"><defs><clipPath id="a"><path d="M0 0h500v500H0z"/></clipPath><clipPath id="e"><path d="M0 0h500v500H0z"/></clipPath><clipPath id="d"><path d="M0 0h500v500H0z"/></clipPath><clipPath id="c"><path d="M0 0h500v500H0z"/></clipPath><clipPath id="b"><path d="M0 0h500v500H0z"/></clipPath></defs><g clip-path="url(#a)"><g clip-path="url(#b)" style="display:none"><g fill="none" class="primary design" style="display:none"><path class="primary"/><path class="primary"/></g><g class="primary design" style="display:none"><path fill="none" class="primary"/></g><g class="primary design" style="display:none"><path fill="none" class="primary"/></g><g class="primary design" style="display:none"><path fill="none" class="primary"/></g><g class="primary design" style="display:none"><path fill="none" class="primary"/></g></g><g clip-path="url(#c)" style="display:none"><g class="primary design" style="display:none"><path class="primary"/><path class="primary"/></g><g fill="none" class="primary design" style="display:none"><path class="primary"/><path class="primary"/></g><g class="primary design" style="display:none"><path fill="none" class="primary"/></g><g fill="none" class="primary design" style="display:none"><path class="primary"/><path class="primary"/></g><g class="primary design" style="display:none"><path fill="none" class="primary"/></g><g class="primary design" style="display:none"><path fill="none" class="primary"/></g><g class="primary design" style="display:none"><path fill="none" class="primary"/></g></g><g clip-path="url(#d)" style="display:block"><g fill="#A22CDF" class="primary design" style="display:block"><path d="M182.304 156.267H317.7c8.54 0 15.623-7.082 15.623-15.623 0-8.54-7.082-15.622-15.623-15.622H182.304c-8.54 0-15.622 6.874-15.622 15.622 0 8.749 7.082 15.623 15.622 15.623z" class="primary"/><path d="M380.19 41.702H161.473c-43.118 0-78.112 34.994-78.112 78.112v262.25h.208c-.208 1.042-.208 2.291-.208 3.333 0 40.202 32.703 72.905 72.905 72.905h244.752c8.749 0 15.623-7.082 15.623-15.623V78.154a36.36 36.36 0 0 0-36.453-36.452zm5.207 340.362v44.993h-229.13c-22.913 0-41.66-18.747-41.66-41.66 0-22.913 18.747-41.66 41.66-41.66h229.13v38.327zm-270.79-262.25c0-25.829 21.038-46.867 46.867-46.867H380.19c2.917 0 5.208 2.291 5.208 5.207v234.338h-229.13c-15.414 0-29.995 4.79-41.66 13.331V119.814z" class="primary"/></g><g fill="#A22CDF" class="primary design" style="display:none"><path d="M182.304 156.267H317.7c8.54 0 15.623-7.082 15.623-15.623 0-8.54-7.082-15.622-15.623-15.622H182.304c-8.54 0-15.622 6.874-15.622 15.622 0 8.749 7.082 15.623 15.622 15.623z" class="primary"/><path d="M380.19 41.702H161.473c-43.118 0-78.112 34.994-78.112 78.112v262.25h.208c-.208 1.042-.208 2.291-.208 3.333 0 40.202 32.703 72.905 72.905 72.905h244.752c8.749 0 15.623-7.082 15.623-15.623V78.154a36.36 36.36 0 0 0-36.453-36.452zm5.207 340.362v44.993h-229.13c-22.913 0-41.66-18.747-41.66-41.66 0-22.913 18.747-41.66 41.66-41.66h229.13v38.327zm-270.79-262.25c0-25.829 21.038-46.867 46.867-46.867H380.19c2.917 0 5.208 2.291 5.208 5.207v234.338h-229.13c-15.414 0-29.995 4.79-41.66 13.331V119.814z" class="primary"/></g><g class="primary design" style="display:none"><path fill="none" class="primary"/></g><g fill="none" class="primary design" style="display:none"><path class="primary"/><path class="primary"/></g></g><g clip-path="url(#e)" style="display:none"><g class="primary design" style="display:none"><path class="primary"/><path class="primary"/></g><g class="primary design" style="display:none"><path fill="none" class="primary"/></g><g fill="none" class="primary design" style="display:none"><path class="primary"/><path class="primary"/></g></g></g></svg>