<svg xmlns="http://www.w3.org/2000/svg" width="500" height="500" style="width:100%;height:100%;transform:translate3d(0,0,0);content-visibility:visible" viewBox="0 0 500 500"><defs><clipPath id="b"><path d="M0 0h500v500H0z"/></clipPath><clipPath id="d"><path d="M0 0h500v500H0z"/></clipPath><clipPath id="e"><path d="M0 0h500v500H0z"/></clipPath><clipPath id="c"><path d="M0 0h500v500H0z"/></clipPath><mask id="f" mask-type="alpha"><use xmlns:ns1="http://www.w3.org/1999/xlink" ns1:href="#a"/></mask><g id="a" class="primary design" style="display:none"><path/><path fill-opacity="0" stroke-linecap="round" stroke-linejoin="round"/></g></defs><g clip-path="url(#b)"><g clip-path="url(#c)" style="display:block"><g class="primary design" style="display:none"><path fill="none" class="primary"/><path class="primary"/></g><g class="primary design" style="display:block"><path fill="none" stroke="#A22CDF" stroke-width="2" d="M0 0" class="primary"/><path fill="#A22CDF" d="M249.997 166.669h12.366c6.83 0 12.366-5.536 12.366-12.366V128.9c0-13.658-11.073-24.731-24.732-24.731-13.658 0-24.73 11.073-24.73 24.731v13.037c0 13.659 11.072 24.732 24.73 24.732zm113.548 87.502-54.463-54.464a41.666 41.666 0 0 0-29.462-12.204h-59.232a41.67 41.67 0 0 0-29.464 12.204l-54.461 54.464c-6.043 6.041-6.043 16.04 0 22.083 3.123 2.916 7.082 4.583 11.042 4.583 4.166 0 7.914-1.667 11.04-4.583l37.471-37.471c2.625-2.626 7.113-.766 7.113 2.947v139.316c0 8.542 7.085 15.625 15.625 15.625h.208c8.54 0 15.625-7.083 15.625-15.625v-84.167c0-8.542 6.877-15.625 15.417-15.625s15.417 7.083 15.417 15.625v84.167c0 8.542 7.085 15.625 15.625 15.625h.208c8.54 0 15.625-7.083 15.625-15.625V241.73c0-3.713 4.487-5.573 7.113-2.947l37.471 37.471c3.126 2.916 6.874 4.583 11.04 4.583 3.96 0 7.919-1.667 11.042-4.583 6.043-6.043 6.043-16.042 0-22.083z" class="primary"/><path fill="#A22CDF" d="M249.998 458.362c-114.89 0-208.359-93.469-208.359-208.359 0-114.89 93.469-208.359 208.359-208.359 114.89 0 208.359 93.469 208.359 208.359 0 114.89-93.469 208.359-208.359 208.359zm0-385.418c-97.631 0-177.059 79.428-177.059 177.059s79.428 177.059 177.059 177.059 177.059-79.428 177.059-177.059S347.629 72.944 249.998 72.944z" class="primary"/></g><g class="primary design" style="display:none"><path fill="none" class="primary"/><path class="primary"/><path class="primary"/><path class="primary"/></g><g class="primary design" style="display:none"><path class="primary"/><path fill="none" class="primary"/><path fill="none" class="primary"/></g><g class="primary design" style="display:none"><path fill="none" class="primary"/><path class="primary"/></g><g class="primary design" style="display:none"><path fill="none" class="primary"/><path class="primary"/></g><g class="primary design" style="display:none"><path fill="none" class="primary"/><path class="primary"/></g><g class="primary design" style="display:none"><path class="primary"/><path fill="none" class="primary"/></g></g><g clip-path="url(#d)" style="display:none"><g class="primary design" style="display:none"><path fill="none" class="primary"/></g><g class="primary design" style="display:none"><path class="primary"/><path class="primary"/><path class="primary"/></g><g clip-path="url(#e)" mask="url(#f)" style="display:none"><g fill="none" class="primary design" style="display:none"><path class="primary"/><path class="primary"/></g><g class="primary design" style="display:none"><path class="primary"/></g><g class="primary design" style="display:none"><path class="primary"/></g><g class="primary design" style="display:none"><path class="primary"/></g><g class="primary design" style="display:none"><path fill="none" class="primary"/></g></g></g></g></svg>